<svg width="1154" height="1154" viewBox="0 0 1154 1154" fill="none" xmlns="http://www.w3.org/2000/svg">
<path d="M771.646 239.149L714.241 509.055L712.73 516.161L719.022 519.794L957.978 657.795L683.544 686.605L676.318 687.364L674.806 694.47L617.402 964.375L505.197 712.276L502.242 705.638L495.017 706.397L220.583 735.207L425.67 550.591L431.07 545.73L428.116 539.092L315.911 286.993L554.867 424.993L561.159 428.626L566.558 423.766L771.646 239.149Z" stroke="url(#paint0_linear_269_15)" stroke-width="20"/>
<path d="M186.031 611.438L214.672 543.75H232.625L261.219 611.438H241.25L236.328 599.438H210.406L205.625 611.438H186.031ZM215.891 584.953H230.984L223.484 565.828L215.891 584.953ZM266.656 611.438V559.5H284.938V577.922H299.891V559.5H318.125V611.438H299.891V592.641H284.938V611.438H266.656ZM325.297 596.344C325.297 591.094 327.125 587.062 330.781 584.25C334.438 581.438 339.391 580.031 345.641 580.031C350.297 580.031 354.469 580.703 358.156 582.047V581.203C358.156 575.578 354.688 572.766 347.75 572.766C343 572.766 338.234 573.719 333.453 575.625L329.703 562.781C336.297 560.094 343.312 558.75 350.75 558.75C359.719 558.75 366.312 560.859 370.531 565.078C374.25 568.703 376.109 574.203 376.109 581.578V611.438H358.062V606.047C354.094 610.422 349 612.609 342.781 612.609C337.656 612.609 333.453 611.188 330.172 608.344C326.922 605.469 325.297 601.469 325.297 596.344ZM342.875 595.5C342.875 597.25 343.469 598.641 344.656 599.672C345.844 600.672 347.391 601.172 349.297 601.172C351.984 601.172 354.156 600.391 355.812 598.828C357.5 597.266 358.344 595.203 358.344 592.641V590.203C356.219 589.328 353.844 588.891 351.219 588.891C348.594 588.891 346.547 589.484 345.078 590.672C343.609 591.859 342.875 593.469 342.875 595.5ZM381.406 611.344L382.203 597.234C383.547 597.422 384.531 597.516 385.156 597.516C385.719 597.516 386.188 597.469 386.562 597.375C386.969 597.281 387.422 597.031 387.922 596.625C388.453 596.219 388.891 595.641 389.234 594.891C389.578 594.141 389.938 593.078 390.312 591.703C390.688 590.328 390.984 588.672 391.203 586.734C391.453 584.797 391.641 582.375 391.766 579.469C391.922 576.531 392 573.203 392 569.484V559.5H436.812V611.438H418.578V573.984H408.969V575.344C408.969 581.469 408.641 586.766 407.984 591.234C407.328 595.672 406.453 599.219 405.359 601.875C404.266 604.531 402.844 606.641 401.094 608.203C399.375 609.734 397.609 610.766 395.797 611.297C394.016 611.828 391.922 612.094 389.516 612.094C387.047 612.094 384.344 611.844 381.406 611.344ZM446.562 611.438V559.5H464.234V585.516L481.531 559.5H498.312V611.438H480.641V585.422L463.391 611.438H446.562ZM504.125 574.172V559.5H552.734V574.172H537.547V611.438H519.312V574.172H504.125ZM558.594 611.438V559.5H576.266V585.516L593.562 559.5H610.344V611.438H592.672V585.422L575.422 611.438H558.594ZM620.094 611.438V559.5H638.375V578.812L652.484 559.5H673.109L655.344 580.828L673.578 611.438H653.516L643.625 594.844L638.375 601.172V611.438H620.094ZM675.359 596.344C675.359 591.094 677.188 587.062 680.844 584.25C684.5 581.438 689.453 580.031 695.703 580.031C700.359 580.031 704.531 580.703 708.219 582.047V581.203C708.219 575.578 704.75 572.766 697.812 572.766C693.062 572.766 688.297 573.719 683.516 575.625L679.766 562.781C686.359 560.094 693.375 558.75 700.812 558.75C709.781 558.75 716.375 560.859 720.594 565.078C724.312 568.703 726.172 574.203 726.172 581.578V611.438H708.125V606.047C704.156 610.422 699.062 612.609 692.844 612.609C687.719 612.609 683.516 611.188 680.234 608.344C676.984 605.469 675.359 601.469 675.359 596.344ZM692.938 595.5C692.938 597.25 693.531 598.641 694.719 599.672C695.906 600.672 697.453 601.172 699.359 601.172C702.047 601.172 704.219 600.391 705.875 598.828C707.562 597.266 708.406 595.203 708.406 592.641V590.203C706.281 589.328 703.906 588.891 701.281 588.891C698.656 588.891 696.609 589.484 695.141 590.672C693.672 591.859 692.938 593.469 692.938 595.5Z" fill="#58A850"/>
<mask id="mask0_269_15" style="mask-type:alpha" maskUnits="userSpaceOnUse" x="191" y="211" width="799" height="786">
<path d="M787.83 211.126L724.023 511.135L989.63 664.527L684.588 696.551L620.78 996.559L496.061 716.342L191.018 748.366L418.98 543.158L294.26 262.941L559.868 416.333L787.83 211.126Z" fill="black"/>
</mask>
<g mask="url(#mask0_269_15)">
<path d="M186.031 611.438L214.672 543.75H232.625L261.219 611.438H241.25L236.328 599.438H210.406L205.625 611.438H186.031ZM215.891 584.953H230.984L223.484 565.828L215.891 584.953ZM266.656 611.438V559.5H284.938V577.922H299.891V559.5H318.125V611.438H299.891V592.641H284.938V611.438H266.656ZM325.297 596.344C325.297 591.094 327.125 587.062 330.781 584.25C334.438 581.438 339.391 580.031 345.641 580.031C350.297 580.031 354.469 580.703 358.156 582.047V581.203C358.156 575.578 354.688 572.766 347.75 572.766C343 572.766 338.234 573.719 333.453 575.625L329.703 562.781C336.297 560.094 343.312 558.75 350.75 558.75C359.719 558.75 366.312 560.859 370.531 565.078C374.25 568.703 376.109 574.203 376.109 581.578V611.438H358.062V606.047C354.094 610.422 349 612.609 342.781 612.609C337.656 612.609 333.453 611.188 330.172 608.344C326.922 605.469 325.297 601.469 325.297 596.344ZM342.875 595.5C342.875 597.25 343.469 598.641 344.656 599.672C345.844 600.672 347.391 601.172 349.297 601.172C351.984 601.172 354.156 600.391 355.812 598.828C357.5 597.266 358.344 595.203 358.344 592.641V590.203C356.219 589.328 353.844 588.891 351.219 588.891C348.594 588.891 346.547 589.484 345.078 590.672C343.609 591.859 342.875 593.469 342.875 595.5ZM381.406 611.344L382.203 597.234C383.547 597.422 384.531 597.516 385.156 597.516C385.719 597.516 386.188 597.469 386.562 597.375C386.969 597.281 387.422 597.031 387.922 596.625C388.453 596.219 388.891 595.641 389.234 594.891C389.578 594.141 389.938 593.078 390.312 591.703C390.688 590.328 390.984 588.672 391.203 586.734C391.453 584.797 391.641 582.375 391.766 579.469C391.922 576.531 392 573.203 392 569.484V559.5H436.812V611.438H418.578V573.984H408.969V575.344C408.969 581.469 408.641 586.766 407.984 591.234C407.328 595.672 406.453 599.219 405.359 601.875C404.266 604.531 402.844 606.641 401.094 608.203C399.375 609.734 397.609 610.766 395.797 611.297C394.016 611.828 391.922 612.094 389.516 612.094C387.047 612.094 384.344 611.844 381.406 611.344ZM446.562 611.438V559.5H464.234V585.516L481.531 559.5H498.312V611.438H480.641V585.422L463.391 611.438H446.562ZM504.125 574.172V559.5H552.734V574.172H537.547V611.438H519.312V574.172H504.125ZM558.594 611.438V559.5H576.266V585.516L593.562 559.5H610.344V611.438H592.672V585.422L575.422 611.438H558.594ZM620.094 611.438V559.5H638.375V578.812L652.484 559.5H673.109L655.344 580.828L673.578 611.438H653.516L643.625 594.844L638.375 601.172V611.438H620.094ZM675.359 596.344C675.359 591.094 677.188 587.062 680.844 584.25C684.5 581.438 689.453 580.031 695.703 580.031C700.359 580.031 704.531 580.703 708.219 582.047V581.203C708.219 575.578 704.75 572.766 697.812 572.766C693.062 572.766 688.297 573.719 683.516 575.625L679.766 562.781C686.359 560.094 693.375 558.75 700.812 558.75C709.781 558.75 716.375 560.859 720.594 565.078C724.312 568.703 726.172 574.203 726.172 581.578V611.438H708.125V606.047C704.156 610.422 699.062 612.609 692.844 612.609C687.719 612.609 683.516 611.188 680.234 608.344C676.984 605.469 675.359 601.469 675.359 596.344ZM692.938 595.5C692.938 597.25 693.531 598.641 694.719 599.672C695.906 600.672 697.453 601.172 699.359 601.172C702.047 601.172 704.219 600.391 705.875 598.828C707.562 597.266 708.406 595.203 708.406 592.641V590.203C706.281 589.328 703.906 588.891 701.281 588.891C698.656 588.891 696.609 589.484 695.141 590.672C693.672 591.859 692.938 593.469 692.938 595.5Z" fill="white"/>
</g>
<defs>
<linearGradient id="paint0_linear_269_15" x1="1153.41" y1="422.252" x2="-6.79761e-05" y2="731.156" gradientUnits="userSpaceOnUse">
<stop stop-color="#6CFF38"/>
<stop offset="1" stop-color="#310081"/>
</linearGradient>
</defs>
</svg>
