<svg width="1920" height="452" viewBox="0 0 1920 452" fill="none" xmlns="http://www.w3.org/2000/svg">
<path opacity="0.25" d="M224 110.989C138.4 110.989 32.6667 141.989 -9.5 157.489H-77V441.489H1987.5C2056 407.323 2137 288.889 1913 88.489C1633 -162.011 1327 207.478 1059 125.489C797.5 45.4892 685.5 178.489 553 178.489C420.5 178.489 331 110.989 224 110.989Z" fill="black"/>
<path opacity="0.5" d="M226 128.489C140.4 128.489 32.6667 141.989 -9.5 157.489H-77V441.489H1987.5C2056 407.323 2170.64 278.865 1920 112.989C1577 -114.011 1382 221.645 1044.5 121.989C873.307 71.4397 685.5 178.489 553 178.489C420.5 178.489 333 128.489 226 128.489Z" fill="black"/>
<path opacity="0.75" d="M293.5 151.989C221 136.99 88 139.489 -1 156.989L-77 167.49V451.49H1987.5C2056 417.323 2169.14 317.366 1918.5 151.489C1575.5 -75.5104 1429.39 202.388 1084.5 132.489C897 94.4895 689.5 179.489 557 179.489C424.5 179.489 401.665 174.368 293.5 151.989Z" fill="black"/>
</svg>
