<svg width="1920" height="452" viewBox="0 0 1920 452" fill="none" xmlns="http://www.w3.org/2000/svg">
<path opacity="0.25" d="M224 111C138.4 111 32.6667 142 -9.5 157.5H-77V441.5H1987.5C2056 407.333 2137 288.9 1913 88.4998C1633 -162 1327 207.488 1059 125.5C797.5 45.5 685.5 178.5 553 178.5C420.5 178.5 331 111 224 111Z" fill="white"/>
<path opacity="0.5" d="M226 128.5C140.4 128.5 32.6667 142 -9.5 157.5H-77V441.501H1987.5C2056 407.334 2170.64 278.876 1920 113C1577 -114 1382 221.656 1044.5 122C873.307 71.4509 685.5 178.5 553 178.5C420.5 178.5 333 128.5 226 128.5Z" fill="white"/>
<path opacity="0.75" d="M293.5 152C221 137 88 139.5 -1 157L-77 167.5V451.501H1987.5C2056 417.334 2169.14 317.376 1918.5 151.5C1575.5 -75.4999 1429.39 202.398 1084.5 132.5C897 94.5 689.5 179.5 557 179.5C424.5 179.5 401.665 174.379 293.5 152Z" fill="white"/>
<path d="M301.5 179.5C229 164.5 88 139.5 -1 157L-77 167.5V451.5H1987.5C2056 417.334 2184.59 320.756 1918.5 181C1581.5 3.99996 1442 192.5 1085.5 135.5C898.072 105.532 691.777 174.809 559.5 182.5C430.5 190 409.665 201.879 301.5 179.5Z" fill="white"/>
</svg>
