<svg width="272" height="192" viewBox="0 0 272 192" fill="none" xmlns="http://www.w3.org/2000/svg">
<path d="M100.768 105.144L120.67 63.151L131.461 44.9605C139.15 27.4473 143.512 16.2879 144.545 11.4823C143.802 9.19232 143.027 8.06348 142.284 8.06348H141.153C139.247 8.54727 135.273 17.8038 129.199 35.8653C115.178 63.2155 104.548 85.3731 97.3436 102.306C91.2697 118.303 87.6836 126.431 86.5528 126.721L87.6836 127.85H88.2651C90.6236 126.334 93.8867 120.657 97.6021 110.82L100.768 105.144Z" fill="#A04C44"/>
<path d="M151.492 171.745C151.459 171.745 151.427 171.745 151.362 171.745C151.201 171.745 151.039 171.745 150.91 171.713C148.584 171.487 143.867 170.584 141.799 169.456C127.293 161.36 121.316 140.589 121.316 116.11V103.628V96.2098C121.316 87.2113 124.353 70.0206 130.427 44.541L119.636 62.7315H120.218V63.3121C117.181 79.6964 115.662 91.0493 115.662 97.3708L115.113 105.305V105.886C115.113 120.657 116.244 132.204 118.538 140.525C125.064 162.844 134.368 174.003 146.387 174.003C152.073 174.003 154.916 172.487 154.916 171.165C154.916 171.165 152.364 171.681 151.492 171.745Z" fill="url(#paint0_linear_4_34)"/>
<path d="M136.63 100.629C133.496 97.5969 130.265 96.0811 126.97 96.0811L121.284 97.2099L120.702 96.6293V104.047C120.702 102.532 126.001 101.403 136.63 100.629Z" fill="url(#paint1_linear_4_34)"/>
<path d="M100.736 104.918H100.154L96.9882 110.562H98.4744C101.608 110.562 107.294 108.853 115.533 105.466L116.082 97.5322C116.082 98.6611 110.978 101.145 100.736 104.918Z" fill="#914A43"/>
<path d="M27.3002 74.7617H14.054V74.9552C17.6078 76.2776 17.1232 81.3735 17.1232 84.5665V110.82C17.1232 113.949 17.5432 119.109 14.054 120.367V120.593H27.3002V120.367C23.8109 119.045 24.2309 113.949 24.2309 110.82V84.5665C24.2309 81.438 23.8109 76.2776 27.3002 74.9552V74.7617Z" fill="black" stroke="black" stroke-miterlimit="10"/>
<path d="M63.5173 74.2783H63.2911C62.3865 74.6976 61.2557 74.7621 60.0926 74.7621H34.0848H32.3402C31.4356 74.6331 30.5309 74.6331 29.6909 74.2783H29.4971L27.0417 82.5673H27.2355C29.4002 80.5353 32.534 79.7935 35.5387 79.7935H41.6772V110.853C41.6772 113.981 42.0972 119.077 38.6079 120.4V120.625H52.4034V120.4C48.7203 118.239 48.7849 115.529 48.7849 111.562V79.8258H55.0526C57.3465 79.8258 60.1573 80.1806 61.0619 82.5995H61.288L63.5173 74.2783Z" fill="black" stroke="black" stroke-miterlimit="10"/>
<path d="M85.4867 99.8223C83.1928 100.661 81.8682 100.661 79.4128 100.661H72.3697C72.1112 100.661 71.7235 100.661 71.2712 100.661C70.1727 100.661 68.7189 100.693 68.1696 100.951C67.4589 101.306 67.0389 101.919 66.5543 102.402L62.8712 106.595L63.0004 106.724C65.2942 105.886 66.6189 105.886 69.0743 105.886H76.1174C76.3758 105.886 76.7635 105.886 77.2158 105.886C78.3143 105.886 79.7359 105.854 80.2851 105.595C80.9959 105.241 81.4159 104.628 81.9005 104.144L85.5836 99.9513L85.4867 99.8223Z" fill="black" stroke="black" stroke-miterlimit="10"/>
<path d="M171.813 73.6328C157.501 73.6328 147.324 83.1796 147.324 97.5965C147.324 112.497 157.501 121.689 173.978 121.689C177.596 121.689 181.247 121.141 184.51 119.593L188.064 111.53H187.87C183.476 114.045 178.243 115.916 173.009 115.916C162.282 115.916 155.304 106.789 155.304 96.5644C155.304 86.4694 161.992 79.4383 171.619 79.4383C176.239 79.4383 180.698 80.9864 184.51 83.4054V75.4067C180.375 74.4069 176.078 73.6328 171.813 73.6328Z" fill="black" stroke="black" stroke-miterlimit="10"/>
<path d="M216.527 74.4062H216.334C215.752 74.7288 215.074 74.761 214.33 74.761C213.91 74.761 213.49 74.7288 213.038 74.7288H190.713V74.9223C194.267 76.2447 193.847 81.3406 193.847 84.5336V110.787C193.847 113.916 194.267 119.076 190.713 120.334V120.56H219.79L222.924 111.432H222.73C219.629 114.142 215.494 115.593 211.39 115.593C210.873 115.593 210.357 115.561 209.84 115.528L200.987 114.69V98.1765H206.157C206.286 98.1765 206.447 98.1765 206.577 98.1765C208.677 98.1765 211.293 98.241 212.36 100.112H212.554V92.7258H212.36C211.52 93.1451 210.389 93.145 209.29 93.145H200.955V80.1795C203.184 79.7602 205.64 79.6957 208.063 79.6957C211.261 79.6957 214.137 79.986 216.301 82.4694H216.495V74.4062H216.527Z" fill="black" stroke="black" stroke-miterlimit="10"/>
<path d="M243.504 73.6328C235.007 73.6328 225.994 76.9871 225.994 85.7598C225.994 100.532 249.998 98.5641 249.998 109.433C249.998 114.303 243.989 116.658 240.015 116.658C234.587 116.658 228.869 114.432 224.734 110.885L226.769 119.593C230.743 121.044 235.007 121.689 239.24 121.689C250.128 121.689 257.946 114.723 257.946 107.272C257.946 94.4035 233.941 94.5325 233.941 84.9857C233.941 80.1801 238.949 78.6642 242.955 78.6642C246.864 78.6642 251.194 80.2769 253.908 83.0506V75.1809C250.548 74.1166 246.994 73.6328 243.504 73.6328Z" fill="black" stroke="black" stroke-miterlimit="10"/>
<defs>
<linearGradient id="paint0_linear_4_34" x1="135.025" y1="7.63325" x2="135.025" y2="173.992" gradientUnits="userSpaceOnUse">
<stop stop-color="#B95046"/>
<stop offset="1" stop-color="#714642"/>
</linearGradient>
<linearGradient id="paint1_linear_4_34" x1="128.662" y1="8.06379" x2="128.662" y2="174.423" gradientUnits="userSpaceOnUse">
<stop stop-color="#B95046"/>
<stop offset="1" stop-color="#714642"/>
</linearGradient>
</defs>
</svg>
