<svg width="965" height="452" viewBox="0 0 965 452" fill="none" xmlns="http://www.w3.org/2000/svg">
<path d="M192.256 185.808C185.152 186 180.352 184.368 177.856 180.912C175.552 177.264 174.4 172.944 174.4 167.952C174.4 163.152 175.552 159.024 177.856 155.568C180.352 152.112 185.152 150.384 192.256 150.384C199.168 150.384 203.776 152.112 206.08 155.568C208.576 159.024 209.824 163.152 209.824 167.952C209.824 173.136 208.576 177.456 206.08 180.912C203.776 184.176 199.168 185.808 192.256 185.808ZM174.976 318V199.344H209.824V318H174.976ZM276.253 318H242.269V155.856H359.197V185.52H276.253V219.504H338.749V247.44H276.253V318ZM446.369 322.032C419.873 322.032 399.617 314.448 385.601 299.28C371.585 283.92 364.577 263.28 364.577 237.36C364.577 220.272 367.553 205.488 373.505 193.008C379.649 180.336 388.769 170.544 400.865 163.632C412.961 156.528 428.129 152.976 446.369 152.976C473.057 152.976 493.313 160.656 507.137 176.016C520.961 191.184 527.873 211.632 527.873 237.36C527.873 254.064 524.801 268.848 518.657 281.712C512.513 294.384 503.393 304.272 491.297 311.376C479.201 318.48 464.225 322.032 446.369 322.032ZM446.081 288.336C456.641 288.336 465.473 286.128 472.577 281.712C479.681 277.104 484.961 270.96 488.417 263.28C491.873 255.6 493.601 246.96 493.601 237.36C493.601 227.76 491.873 219.024 488.417 211.152C484.961 203.28 479.681 197.04 472.577 192.432C465.473 187.824 456.641 185.52 446.081 185.52C430.529 185.52 418.721 190.416 410.657 200.208C402.593 209.808 398.561 222.192 398.561 237.36C398.561 246.768 400.289 255.312 403.745 262.992C407.201 270.672 412.385 276.816 419.297 281.424C426.401 286.032 435.329 288.336 446.081 288.336ZM555.012 318V155.856H589.86V288.336H664.74V318H555.012ZM767.752 288.336V318H690.856V288.336H712.168V185.52H690.856V155.856H767.752V185.52H746.728V288.336H767.752ZM873.869 322.032C847.373 322.032 827.117 314.448 813.101 299.28C799.085 283.92 792.077 263.28 792.077 237.36C792.077 220.272 795.053 205.488 801.005 193.008C807.149 180.336 816.269 170.544 828.365 163.632C840.461 156.528 855.629 152.976 873.869 152.976C900.557 152.976 920.813 160.656 934.637 176.016C948.461 191.184 955.373 211.632 955.373 237.36C955.373 254.064 952.301 268.848 946.157 281.712C940.013 294.384 930.893 304.272 918.797 311.376C906.701 318.48 891.725 322.032 873.869 322.032ZM873.581 288.336C884.141 288.336 892.973 286.128 900.077 281.712C907.181 277.104 912.461 270.96 915.917 263.28C919.373 255.6 921.101 246.96 921.101 237.36C921.101 227.76 919.373 219.024 915.917 211.152C912.461 203.28 907.181 197.04 900.077 192.432C892.973 187.824 884.141 185.52 873.581 185.52C858.029 185.52 846.221 190.416 838.157 200.208C830.093 209.808 826.061 222.192 826.061 237.36C826.061 246.768 827.789 255.312 831.245 262.992C834.701 270.672 839.885 276.816 846.797 281.424C853.901 286.032 862.829 288.336 873.581 288.336Z" fill="#349D98"/>
<mask id="mask0_252_7" style="mask-type:alpha" maskUnits="userSpaceOnUse" x="0" y="0" width="452" height="452">
<circle cx="226" cy="226" r="226" fill="black"/>
</mask>
<g mask="url(#mask0_252_7)">
<path d="M192.256 185.808C185.152 186 180.352 184.368 177.856 180.912C175.552 177.264 174.4 172.944 174.4 167.952C174.4 163.152 175.552 159.024 177.856 155.568C180.352 152.112 185.152 150.384 192.256 150.384C199.168 150.384 203.776 152.112 206.08 155.568C208.576 159.024 209.824 163.152 209.824 167.952C209.824 173.136 208.576 177.456 206.08 180.912C203.776 184.176 199.168 185.808 192.256 185.808ZM174.976 318V199.344H209.824V318H174.976ZM276.253 318H242.269V155.856H359.197V185.52H276.253V219.504H338.749V247.44H276.253V318ZM446.369 322.032C419.873 322.032 399.617 314.448 385.601 299.28C371.585 283.92 364.577 263.28 364.577 237.36C364.577 220.272 367.553 205.488 373.505 193.008C379.649 180.336 388.769 170.544 400.865 163.632C412.961 156.528 428.129 152.976 446.369 152.976C473.057 152.976 493.313 160.656 507.137 176.016C520.961 191.184 527.873 211.632 527.873 237.36C527.873 254.064 524.801 268.848 518.657 281.712C512.513 294.384 503.393 304.272 491.297 311.376C479.201 318.48 464.225 322.032 446.369 322.032ZM446.081 288.336C456.641 288.336 465.473 286.128 472.577 281.712C479.681 277.104 484.961 270.96 488.417 263.28C491.873 255.6 493.601 246.96 493.601 237.36C493.601 227.76 491.873 219.024 488.417 211.152C484.961 203.28 479.681 197.04 472.577 192.432C465.473 187.824 456.641 185.52 446.081 185.52C430.529 185.52 418.721 190.416 410.657 200.208C402.593 209.808 398.561 222.192 398.561 237.36C398.561 246.768 400.289 255.312 403.745 262.992C407.201 270.672 412.385 276.816 419.297 281.424C426.401 286.032 435.329 288.336 446.081 288.336ZM555.012 318V155.856H589.86V288.336H664.74V318H555.012ZM767.752 288.336V318H690.856V288.336H712.168V185.52H690.856V155.856H767.752V185.52H746.728V288.336H767.752ZM873.869 322.032C847.373 322.032 827.117 314.448 813.101 299.28C799.085 283.92 792.077 263.28 792.077 237.36C792.077 220.272 795.053 205.488 801.005 193.008C807.149 180.336 816.269 170.544 828.365 163.632C840.461 156.528 855.629 152.976 873.869 152.976C900.557 152.976 920.813 160.656 934.637 176.016C948.461 191.184 955.373 211.632 955.373 237.36C955.373 254.064 952.301 268.848 946.157 281.712C940.013 294.384 930.893 304.272 918.797 311.376C906.701 318.48 891.725 322.032 873.869 322.032ZM873.581 288.336C884.141 288.336 892.973 286.128 900.077 281.712C907.181 277.104 912.461 270.96 915.917 263.28C919.373 255.6 921.101 246.96 921.101 237.36C921.101 227.76 919.373 219.024 915.917 211.152C912.461 203.28 907.181 197.04 900.077 192.432C892.973 187.824 884.141 185.52 873.581 185.52C858.029 185.52 846.221 190.416 838.157 200.208C830.093 209.808 826.061 222.192 826.061 237.36C826.061 246.768 827.789 255.312 831.245 262.992C834.701 270.672 839.885 276.816 846.797 281.424C853.901 286.032 862.829 288.336 873.581 288.336Z" fill="white"/>
</g>
<circle cx="226" cy="226" r="216" stroke="url(#paint0_linear_252_7)" stroke-width="20"/>
<defs>
<linearGradient id="paint0_linear_252_7" x1="452" y1="0" x2="0" y2="452" gradientUnits="userSpaceOnUse">
<stop stop-color="#148393"/>
<stop offset="1" stop-color="#79D5A3"/>
</linearGradient>
</defs>
</svg>
