<svg width="949" height="949" viewBox="0 0 949 949" fill="none" xmlns="http://www.w3.org/2000/svg">
<path d="M132.48 524.915L601.185 152.916L688.993 744.827L132.48 524.915Z" stroke="url(#paint0_linear_306_4)" stroke-width="20"/>
<path d="M109.25 432.753V365.534H128.938L144.969 391.55L161 365.534H180.688V432.753H162.125V394.175L144.969 420.472H144.594L127.484 394.362V432.753H109.25ZM189.406 406.831C189.406 403.175 190.125 399.69 191.563 396.378C193.031 393.034 195.016 390.144 197.516 387.706C200.047 385.237 203.109 383.284 206.703 381.847C210.297 380.378 214.141 379.644 218.234 379.644C223.641 379.644 228.531 380.862 232.906 383.3C237.313 385.737 240.734 389.034 243.172 393.19C245.609 397.347 246.828 401.894 246.828 406.831C246.828 410.487 246.094 413.987 244.625 417.331C243.188 420.644 241.219 423.534 238.719 426.003C236.219 428.44 233.172 430.394 229.578 431.862C225.984 433.3 222.141 434.019 218.047 434.019C213.984 434.019 210.156 433.3 206.563 431.862C203 430.425 199.969 428.487 197.469 426.05C194.969 423.612 193 420.722 191.563 417.378C190.125 414.034 189.406 410.519 189.406 406.831ZM207.172 406.831C207.172 410.05 208.219 412.815 210.313 415.128C212.438 417.409 215.078 418.55 218.234 418.55C221.453 418.55 224.063 417.425 226.063 415.175C228.063 412.925 229.063 410.144 229.063 406.831C229.063 403.612 228.016 400.862 225.922 398.581C223.828 396.269 221.203 395.112 218.047 395.112C214.828 395.112 212.203 396.253 210.172 398.534C208.172 400.784 207.172 403.55 207.172 406.831ZM250.578 443.3V418.081H255.406C257 413.456 258.156 408.628 258.875 403.597C259.625 398.534 260 391.769 260 383.3V380.815H306.266V418.081H312.313L310.578 443.3H295.063V432.753H267.875L266.938 443.3H250.578ZM274.016 418.081H287.938V395.3H277.391V396.19C277.234 403.847 276.109 411.144 274.016 418.081ZM313.438 380.815H332.516L342.875 412.128L352.672 380.815H371.422L352.391 431.487C350.109 437.644 347.516 442.003 344.609 444.565C341.703 447.128 337.703 448.409 332.609 448.409C326.859 448.409 321.297 446.909 315.922 443.909L321.594 431.112C324.688 432.987 327.344 433.925 329.563 433.925C331.375 433.925 332.781 433.222 333.781 431.815L313.438 380.815ZM373.391 432.659L374.188 418.55C375.531 418.737 376.516 418.831 377.141 418.831C377.703 418.831 378.172 418.784 378.547 418.69C378.953 418.597 379.406 418.347 379.906 417.94C380.438 417.534 380.875 416.956 381.219 416.206C381.563 415.456 381.922 414.394 382.297 413.019C382.672 411.644 382.969 409.987 383.188 408.05C383.438 406.112 383.625 403.69 383.75 400.784C383.906 397.847 383.984 394.519 383.984 390.8V380.815H428.797V432.753H410.563V395.3H400.953V396.659C400.953 402.784 400.625 408.081 399.969 412.55C399.313 416.987 398.438 420.534 397.344 423.19C396.25 425.847 394.828 427.956 393.078 429.519C391.359 431.05 389.594 432.081 387.781 432.612C386 433.144 383.906 433.409 381.5 433.409C379.031 433.409 376.328 433.159 373.391 432.659ZM438.547 432.753V380.815H456.828V397.128H465.641C472.016 397.128 477.172 398.659 481.109 401.722C485.078 404.753 487.063 409.112 487.063 414.8C487.063 420.394 485.203 424.784 481.484 427.972C477.766 431.159 472.734 432.753 466.391 432.753H438.547ZM456.828 419.909H462.453C464.672 419.909 466.391 419.425 467.609 418.456C468.859 417.487 469.484 416.081 469.484 414.237C469.484 412.55 468.859 411.237 467.609 410.3C466.359 409.331 464.641 408.847 462.453 408.847H456.828V419.909ZM493.859 432.753V380.815H512.141V399.237H527.094V380.815H545.328V432.753H527.094V413.956H512.141V432.753H493.859ZM552.969 406.831C552.969 403.175 553.688 399.69 555.125 396.378C556.594 393.034 558.578 390.144 561.078 387.706C563.609 385.237 566.672 383.284 570.266 381.847C573.859 380.378 577.703 379.644 581.797 379.644C587.203 379.644 592.094 380.862 596.469 383.3C600.875 385.737 604.297 389.034 606.734 393.19C609.172 397.347 610.391 401.894 610.391 406.831C610.391 410.487 609.656 413.987 608.188 417.331C606.75 420.644 604.781 423.534 602.281 426.003C599.781 428.44 596.734 430.394 593.141 431.862C589.547 433.3 585.703 434.019 581.609 434.019C577.547 434.019 573.719 433.3 570.125 431.862C566.563 430.425 563.531 428.487 561.031 426.05C558.531 423.612 556.563 420.722 555.125 417.378C553.688 414.034 552.969 410.519 552.969 406.831ZM570.734 406.831C570.734 410.05 571.781 412.815 573.875 415.128C576 417.409 578.641 418.55 581.797 418.55C585.016 418.55 587.625 417.425 589.625 415.175C591.625 412.925 592.625 410.144 592.625 406.831C592.625 403.612 591.578 400.862 589.484 398.581C587.391 396.269 584.766 395.112 581.609 395.112C578.391 395.112 575.766 396.253 573.734 398.534C571.734 400.784 570.734 403.55 570.734 406.831ZM615.969 406.831C615.969 401.956 617.125 397.472 619.438 393.378C621.781 389.253 625.094 385.956 629.375 383.487C633.656 381.019 638.469 379.784 643.813 379.784C653.75 379.784 661.141 383.644 665.984 391.362L653.797 400.222C651.359 396.815 648.234 395.112 644.422 395.112C641.203 395.112 638.609 396.237 636.641 398.487C634.703 400.706 633.734 403.487 633.734 406.831C633.734 410.206 634.703 413.019 636.641 415.269C638.578 417.519 641.063 418.644 644.094 418.644C646.125 418.644 647.875 418.206 649.344 417.331C650.813 416.425 652.328 415.034 653.891 413.159L666.313 422.112C661 430.05 653.281 434.019 643.156 434.019C638.063 434.019 633.422 432.8 629.234 430.362C625.047 427.894 621.781 424.581 619.438 420.425C617.125 416.269 615.969 411.737 615.969 406.831ZM668.797 395.487V380.815H717.406V395.487H702.219V432.753H683.984V395.487H668.797ZM723.266 432.753V380.815H741.547V397.128H750.359C756.734 397.128 761.891 398.659 765.828 401.722C769.797 404.753 771.781 409.112 771.781 414.8C771.781 420.394 769.922 424.784 766.203 427.972C762.484 431.159 757.453 432.753 751.109 432.753H723.266ZM741.547 419.909H747.172C749.391 419.909 751.109 419.425 752.328 418.456C753.578 417.487 754.203 416.081 754.203 414.237C754.203 412.55 753.578 411.237 752.328 410.3C751.078 409.331 749.359 408.847 747.172 408.847H741.547V419.909Z" fill="#994999"/>
<mask id="mask0_306_4" style="mask-type:alpha" maskUnits="userSpaceOnUse" x="112" y="134" width="590" height="627">
<path d="M608.535 134.316L701.427 760.492L112.697 527.85L608.535 134.316Z" fill="black"/>
</mask>
<g mask="url(#mask0_306_4)">
<path d="M109.25 432.753V365.534H128.938L144.969 391.55L161 365.534H180.688V432.753H162.125V394.175L144.969 420.472H144.594L127.485 394.362V432.753H109.25ZM189.406 406.831C189.406 403.175 190.125 399.69 191.563 396.378C193.031 393.034 195.016 390.144 197.516 387.706C200.047 385.237 203.11 383.284 206.703 381.847C210.297 380.378 214.141 379.644 218.235 379.644C223.641 379.644 228.531 380.862 232.906 383.3C237.313 385.737 240.735 389.034 243.172 393.19C245.61 397.347 246.828 401.894 246.828 406.831C246.828 410.487 246.094 413.987 244.625 417.331C243.188 420.644 241.219 423.534 238.719 426.003C236.219 428.44 233.172 430.394 229.578 431.862C225.985 433.3 222.141 434.019 218.047 434.019C213.985 434.019 210.156 433.3 206.563 431.862C203 430.425 199.969 428.487 197.469 426.05C194.969 423.612 193 420.722 191.563 417.378C190.125 414.034 189.406 410.519 189.406 406.831ZM207.172 406.831C207.172 410.05 208.219 412.815 210.313 415.128C212.438 417.409 215.078 418.55 218.235 418.55C221.453 418.55 224.063 417.425 226.063 415.175C228.063 412.925 229.063 410.144 229.063 406.831C229.063 403.612 228.016 400.862 225.922 398.581C223.828 396.269 221.203 395.112 218.047 395.112C214.828 395.112 212.203 396.253 210.172 398.534C208.172 400.784 207.172 403.55 207.172 406.831ZM250.578 443.3V418.081H255.406C257 413.456 258.156 408.628 258.875 403.597C259.625 398.534 260 391.769 260 383.3V380.815H306.266V418.081H312.313L310.578 443.3H295.063V432.753H267.875L266.938 443.3H250.578ZM274.016 418.081H287.938V395.3H277.391V396.19C277.235 403.847 276.11 411.144 274.016 418.081ZM313.438 380.815H332.516L342.875 412.128L352.672 380.815H371.422L352.391 431.487C350.11 437.644 347.516 442.003 344.61 444.565C341.703 447.128 337.703 448.409 332.61 448.409C326.86 448.409 321.297 446.909 315.922 443.909L321.594 431.112C324.688 432.987 327.344 433.925 329.563 433.925C331.375 433.925 332.781 433.222 333.781 431.815L313.438 380.815ZM373.391 432.659L374.188 418.55C375.531 418.737 376.516 418.831 377.141 418.831C377.703 418.831 378.172 418.784 378.547 418.69C378.953 418.597 379.406 418.347 379.906 417.94C380.438 417.534 380.875 416.956 381.219 416.206C381.563 415.456 381.922 414.394 382.297 413.019C382.672 411.644 382.969 409.987 383.188 408.05C383.438 406.112 383.625 403.69 383.75 400.784C383.906 397.847 383.985 394.519 383.985 390.8V380.815H428.797V432.753H410.563V395.3H400.953V396.659C400.953 402.784 400.625 408.081 399.969 412.55C399.313 416.987 398.438 420.534 397.344 423.19C396.25 425.847 394.828 427.956 393.078 429.519C391.36 431.05 389.594 432.081 387.781 432.612C386 433.144 383.906 433.409 381.5 433.409C379.031 433.409 376.328 433.159 373.391 432.659ZM438.547 432.753V380.815H456.828V397.128H465.641C472.016 397.128 477.172 398.659 481.11 401.722C485.078 404.753 487.063 409.112 487.063 414.8C487.063 420.394 485.203 424.784 481.485 427.972C477.766 431.159 472.735 432.753 466.391 432.753H438.547ZM456.828 419.909H462.453C464.672 419.909 466.391 419.425 467.61 418.456C468.86 417.487 469.485 416.081 469.485 414.237C469.485 412.55 468.86 411.237 467.61 410.3C466.36 409.331 464.641 408.847 462.453 408.847H456.828V419.909ZM493.86 432.753V380.815H512.141V399.237H527.094V380.815H545.328V432.753H527.094V413.956H512.141V432.753H493.86ZM552.969 406.831C552.969 403.175 553.688 399.69 555.125 396.378C556.594 393.034 558.578 390.144 561.078 387.706C563.61 385.237 566.672 383.284 570.266 381.847C573.86 380.378 577.703 379.644 581.797 379.644C587.203 379.644 592.094 380.862 596.469 383.3C600.875 385.737 604.297 389.034 606.735 393.19C609.172 397.347 610.391 401.894 610.391 406.831C610.391 410.487 609.656 413.987 608.188 417.331C606.75 420.644 604.781 423.534 602.281 426.003C599.781 428.44 596.735 430.394 593.141 431.862C589.547 433.3 585.703 434.019 581.61 434.019C577.547 434.019 573.719 433.3 570.125 431.862C566.563 430.425 563.531 428.487 561.031 426.05C558.531 423.612 556.563 420.722 555.125 417.378C553.688 414.034 552.969 410.519 552.969 406.831ZM570.735 406.831C570.735 410.05 571.781 412.815 573.875 415.128C576 417.409 578.641 418.55 581.797 418.55C585.016 418.55 587.625 417.425 589.625 415.175C591.625 412.925 592.625 410.144 592.625 406.831C592.625 403.612 591.578 400.862 589.485 398.581C587.391 396.269 584.766 395.112 581.61 395.112C578.391 395.112 575.766 396.253 573.735 398.534C571.735 400.784 570.735 403.55 570.735 406.831ZM615.969 406.831C615.969 401.956 617.125 397.472 619.438 393.378C621.781 389.253 625.094 385.956 629.375 383.487C633.656 381.019 638.469 379.784 643.813 379.784C653.75 379.784 661.141 383.644 665.985 391.362L653.797 400.222C651.36 396.815 648.235 395.112 644.422 395.112C641.203 395.112 638.61 396.237 636.641 398.487C634.703 400.706 633.735 403.487 633.735 406.831C633.735 410.206 634.703 413.019 636.641 415.269C638.578 417.519 641.063 418.644 644.094 418.644C646.125 418.644 647.875 418.206 649.344 417.331C650.813 416.425 652.328 415.034 653.891 413.159L666.313 422.112C661 430.05 653.281 434.019 643.156 434.019C638.063 434.019 633.422 432.8 629.235 430.362C625.047 427.894 621.781 424.581 619.438 420.425C617.125 416.269 615.969 411.737 615.969 406.831ZM668.797 395.487V380.815H717.406V395.487H702.219V432.753H683.985V395.487H668.797ZM723.266 432.753V380.815H741.547V397.128H750.36C756.735 397.128 761.891 398.659 765.828 401.722C769.797 404.753 771.781 409.112 771.781 414.8C771.781 420.394 769.922 424.784 766.203 427.972C762.485 431.159 757.453 432.753 751.11 432.753H723.266ZM741.547 419.909H747.172C749.391 419.909 751.11 419.425 752.328 418.456C753.578 417.487 754.203 416.081 754.203 414.237C754.203 412.55 753.578 411.237 752.328 410.3C751.078 409.331 749.36 408.847 747.172 408.847H741.547V419.909Z" fill="white"/>
</g>
<defs>
<linearGradient id="paint0_linear_306_4" x1="608.536" y1="134.316" x2="339.904" y2="814.123" gradientUnits="userSpaceOnUse">
<stop stop-color="#D579BB"/>
<stop offset="1" stop-color="#3BD4E9"/>
</linearGradient>
</defs>
</svg>
