<svg width="1920" height="452" viewBox="0 0 1920 452" fill="none" xmlns="http://www.w3.org/2000/svg">
<path opacity="0.25" d="M1664.43 340.501C1750.03 340.501 1855.76 309.501 1897.93 294.001L1965.43 294.001L1965.43 10.0008L-99.0703 10.0006C-167.57 44.1673 -248.57 162.601 -24.5703 363.001C255.43 613.501 561.429 244.012 829.43 326.001C1090.93 406.001 1202.93 273.001 1335.43 273.001C1467.93 273.001 1557.43 340.501 1664.43 340.501Z" fill="black"/>
<path opacity="0.5" d="M1662.43 323.001C1748.03 323.001 1855.76 309.501 1897.93 294.001L1965.43 294.001L1965.43 10.0008L-99.0703 10.0006C-167.57 44.1673 -282.212 172.625 -31.5703 338.501C311.43 565.501 506.43 229.846 843.93 329.501C1015.12 380.05 1202.93 273.001 1335.43 273.001C1467.93 273.001 1555.43 323.001 1662.43 323.001Z" fill="black"/>
<path opacity="0.75" d="M1594.93 299.501C1667.43 314.501 1800.43 312.001 1889.43 294.501L1965.43 284L1965.43 6.10352e-05L-99.0703 -0.000119449C-167.57 34.1666 -280.712 134.124 -30.0703 300.001C312.93 527.001 459.036 249.103 803.93 319.001C991.43 357.001 1198.93 272.001 1331.43 272.001C1463.93 272.001 1486.76 277.122 1594.93 299.501Z" fill="black"/>
</svg>
