<svg width="672" height="620" viewBox="0 0 672 620" fill="none" xmlns="http://www.w3.org/2000/svg">
<path d="M528.375 498.746L268.744 570.82L76.4653 381.866L143.828 120.836L403.459 48.7623L595.738 237.716L528.375 498.746Z" stroke="url(#paint0_linear_277_5)" stroke-width="20"/>
<path d="M265.953 340.417V273.198H284.562V324.104H303.688V273.198H322.297V324.104H341.422V273.198H360.031V340.417H265.953ZM368.234 325.323C368.234 320.073 370.062 316.042 373.719 313.229C377.375 310.417 382.328 309.011 388.578 309.011C393.234 309.011 397.406 309.683 401.094 311.026V310.183C401.094 304.558 397.625 301.745 390.688 301.745C385.938 301.745 381.172 302.698 376.391 304.604L372.641 291.761C379.234 289.073 386.25 287.729 393.688 287.729C402.656 287.729 409.25 289.839 413.469 294.058C417.188 297.683 419.047 303.183 419.047 310.558V340.417H401V335.026C397.031 339.401 391.938 341.589 385.719 341.589C380.594 341.589 376.391 340.167 373.109 337.323C369.859 334.448 368.234 330.448 368.234 325.323ZM385.812 324.479C385.812 326.229 386.406 327.62 387.594 328.651C388.781 329.651 390.328 330.151 392.234 330.151C394.922 330.151 397.094 329.37 398.75 327.808C400.438 326.245 401.281 324.183 401.281 321.62V319.183C399.156 318.308 396.781 317.87 394.156 317.87C391.531 317.87 389.484 318.464 388.016 319.651C386.547 320.839 385.812 322.448 385.812 324.479ZM428.281 355.792V288.479H446.562V295.37C448.656 292.839 450.906 290.87 453.312 289.464C455.719 288.026 458.703 287.308 462.266 287.308C465.359 287.308 468.297 287.948 471.078 289.229C473.859 290.479 476.312 292.245 478.438 294.526C480.562 296.808 482.234 299.667 483.453 303.104C484.703 306.542 485.328 310.308 485.328 314.401C485.328 318.495 484.703 322.276 483.453 325.745C482.234 329.183 480.562 332.058 478.438 334.37C476.344 336.651 473.906 338.433 471.125 339.714C468.344 340.964 465.422 341.589 462.359 341.589C458.766 341.589 455.719 340.917 453.219 339.573C450.75 338.229 448.531 336.401 446.562 334.089V355.792H428.281ZM446.141 314.495C446.141 317.901 447.156 320.729 449.188 322.979C451.25 325.198 453.766 326.308 456.734 326.308C459.766 326.308 462.297 325.198 464.328 322.979C466.359 320.761 467.375 317.87 467.375 314.308C467.375 310.933 466.344 308.136 464.281 305.917C462.25 303.698 459.734 302.589 456.734 302.589C453.766 302.589 451.25 303.714 449.188 305.964C447.156 308.183 446.141 311.026 446.141 314.495ZM493.156 340.417V288.479H510.828V314.495L528.125 288.479H544.906V340.417H527.234V314.401L509.984 340.417H493.156ZM554.656 340.417V288.479H572.938V306.901H587.891V288.479H606.125V340.417H587.891V321.62H572.938V340.417H554.656ZM615.875 340.417V288.479H655.062V303.151H634.156V340.417H615.875Z" fill="#5641A2"/>
<mask id="mask0_277_5" style="mask-type:alpha" maskUnits="userSpaceOnUse" x="65" y="37" width="542" height="545">
<path d="M265.854 582L65.3407 384.954L135.588 112.745L406.349 37.5818L606.862 234.627L536.615 506.836L265.854 582Z" fill="black"/>
</mask>
<g mask="url(#mask0_277_5)">
<path d="M265.953 340.417V273.198H284.562V324.104H303.688V273.198H322.297V324.104H341.422V273.198H360.031V340.417H265.953ZM368.234 325.323C368.234 320.073 370.062 316.042 373.719 313.229C377.375 310.417 382.328 309.011 388.578 309.011C393.234 309.011 397.406 309.683 401.094 311.026V310.183C401.094 304.558 397.625 301.745 390.688 301.745C385.938 301.745 381.172 302.698 376.391 304.604L372.641 291.761C379.234 289.073 386.25 287.729 393.688 287.729C402.656 287.729 409.25 289.839 413.469 294.058C417.188 297.683 419.047 303.183 419.047 310.558V340.417H401V335.026C397.031 339.401 391.938 341.589 385.719 341.589C380.594 341.589 376.391 340.167 373.109 337.323C369.859 334.448 368.234 330.448 368.234 325.323ZM385.812 324.479C385.812 326.229 386.406 327.62 387.594 328.651C388.781 329.651 390.328 330.151 392.234 330.151C394.922 330.151 397.094 329.37 398.75 327.808C400.438 326.245 401.281 324.183 401.281 321.62V319.183C399.156 318.308 396.781 317.87 394.156 317.87C391.531 317.87 389.484 318.464 388.016 319.651C386.547 320.839 385.812 322.448 385.812 324.479ZM428.281 355.792V288.479H446.562V295.37C448.656 292.839 450.906 290.87 453.312 289.464C455.719 288.026 458.703 287.308 462.266 287.308C465.359 287.308 468.297 287.948 471.078 289.229C473.859 290.479 476.312 292.245 478.438 294.526C480.562 296.808 482.234 299.667 483.453 303.104C484.703 306.542 485.328 310.308 485.328 314.401C485.328 318.495 484.703 322.276 483.453 325.745C482.234 329.183 480.562 332.058 478.438 334.37C476.344 336.651 473.906 338.433 471.125 339.714C468.344 340.964 465.422 341.589 462.359 341.589C458.766 341.589 455.719 340.917 453.219 339.573C450.75 338.229 448.531 336.401 446.562 334.089V355.792H428.281ZM446.141 314.495C446.141 317.901 447.156 320.729 449.188 322.979C451.25 325.198 453.766 326.308 456.734 326.308C459.766 326.308 462.297 325.198 464.328 322.979C466.359 320.761 467.375 317.87 467.375 314.308C467.375 310.933 466.344 308.136 464.281 305.917C462.25 303.698 459.734 302.589 456.734 302.589C453.766 302.589 451.25 303.714 449.188 305.964C447.156 308.183 446.141 311.026 446.141 314.495ZM493.156 340.417V288.479H510.828V314.495L528.125 288.479H544.906V340.417H527.234V314.401L509.984 340.417H493.156ZM554.656 340.417V288.479H572.938V306.901H587.891V288.479H606.125V340.417H587.891V321.62H572.938V340.417H554.656ZM615.875 340.417V288.479H655.062V303.151H634.156V340.417H615.875Z" fill="black"/>
</g>
<defs>
<linearGradient id="paint0_linear_277_5" x1="541.73" y1="8.0049e-05" x2="226.046" y2="664.954" gradientUnits="userSpaceOnUse">
<stop stop-color="#4B1493"/>
<stop offset="1" stop-color="#79CFD5"/>
</linearGradient>
</defs>
</svg>
