<svg width="547" height="418" viewBox="0 0 547 418" fill="none" xmlns="http://www.w3.org/2000/svg">
<circle cx="338" cy="209" r="199" stroke="url(#paint0_linear_255_9)" stroke-width="20"/>
<path d="M1.375 228.016L11.0312 215.641C16.3438 220.953 22.6562 223.609 29.9688 223.609C33.3125 223.609 35.8594 223 37.6094 221.781C39.3594 220.562 40.2344 218.953 40.2344 216.953C40.2344 213.016 36.6562 211.047 29.5 211.047H22.4688V197.219H29.2656C32.4844 197.219 34.875 196.672 36.4375 195.578C38 194.453 38.7812 192.953 38.7812 191.078C38.7812 189.328 38.0156 187.922 36.4844 186.859C34.9531 185.766 32.9062 185.219 30.3438 185.219C27.4375 185.219 24.3438 185.844 21.0625 187.094C17.8125 188.344 15.1406 189.922 13.0469 191.828L3.85938 180.859C11.5781 173.266 20.9531 169.469 31.9844 169.469C39.3906 169.469 45.4219 171.172 50.0781 174.578C54.7656 177.984 57.1094 182.328 57.1094 187.609C57.1094 194.641 53.75 199.719 47.0312 202.844C50.6562 204.062 53.5312 205.969 55.6562 208.562C57.7812 211.125 58.8438 214.406 58.8438 218.406C58.8438 224.5 56.4219 229.5 51.5781 233.406C46.7656 237.312 40.2969 239.266 32.1719 239.266C27.2656 239.266 22.8594 238.766 18.9531 237.766C15.0469 236.734 11.8281 235.469 9.29688 233.969C6.79688 232.438 4.15625 230.453 1.375 228.016ZM64 222.906C64 217.656 65.8281 213.625 69.4844 210.812C73.1406 208 78.0938 206.594 84.3438 206.594C89 206.594 93.1719 207.266 96.8594 208.609V207.766C96.8594 202.141 93.3906 199.328 86.4531 199.328C81.7031 199.328 76.9375 200.281 72.1562 202.188L68.4062 189.344C75 186.656 82.0156 185.312 89.4531 185.312C98.4219 185.312 105.016 187.422 109.234 191.641C112.953 195.266 114.812 200.766 114.812 208.141V238H96.7656V232.609C92.7969 236.984 87.7031 239.172 81.4844 239.172C76.3594 239.172 72.1562 237.75 68.875 234.906C65.625 232.031 64 228.031 64 222.906ZM81.5781 222.062C81.5781 223.812 82.1719 225.203 83.3594 226.234C84.5469 227.234 86.0938 227.734 88 227.734C90.6875 227.734 92.8594 226.953 94.5156 225.391C96.2031 223.828 97.0469 221.766 97.0469 219.203V216.766C94.9219 215.891 92.5469 215.453 89.9219 215.453C87.2969 215.453 85.25 216.047 83.7812 217.234C82.3125 218.422 81.5781 220.031 81.5781 222.062ZM120.109 248.547V223.328H124.938C126.531 218.703 127.688 213.875 128.406 208.844C129.156 203.781 129.531 197.016 129.531 188.547V186.062H175.797V223.328H181.844L180.109 248.547H164.594V238H137.406L136.469 248.547H120.109ZM143.547 223.328H157.469V200.547H146.922V201.438C146.766 209.094 145.641 216.391 143.547 223.328ZM184.188 222.906C184.188 217.656 186.016 213.625 189.672 210.812C193.328 208 198.281 206.594 204.531 206.594C209.188 206.594 213.359 207.266 217.047 208.609V207.766C217.047 202.141 213.578 199.328 206.641 199.328C201.891 199.328 197.125 200.281 192.344 202.188L188.594 189.344C195.188 186.656 202.203 185.312 209.641 185.312C218.609 185.312 225.203 187.422 229.422 191.641C233.141 195.266 235 200.766 235 208.141V238H216.953V232.609C212.984 236.984 207.891 239.172 201.672 239.172C196.547 239.172 192.344 237.75 189.062 234.906C185.812 232.031 184.188 228.031 184.188 222.906ZM201.766 222.062C201.766 223.812 202.359 225.203 203.547 226.234C204.734 227.234 206.281 227.734 208.188 227.734C210.875 227.734 213.047 226.953 214.703 225.391C216.391 223.828 217.234 221.766 217.234 219.203V216.766C215.109 215.891 212.734 215.453 210.109 215.453C207.484 215.453 205.438 216.047 203.969 217.234C202.5 218.422 201.766 220.031 201.766 222.062ZM243.766 206.219V186.062H262.094V200.734C262.094 203.422 262.516 205.422 263.359 206.734C264.203 208.047 265.609 208.703 267.578 208.703C270.828 208.703 273.328 208.031 275.078 206.688V186.062H293.312V238H275.078V221.312C273.578 222 271.547 222.562 268.984 223C266.453 223.406 264.188 223.609 262.188 223.609C256.75 223.609 252.312 222.078 248.875 219.016C245.469 215.922 243.766 211.656 243.766 206.219ZM300.531 222.906C300.531 217.656 302.359 213.625 306.016 210.812C309.672 208 314.625 206.594 320.875 206.594C325.531 206.594 329.703 207.266 333.391 208.609V207.766C333.391 202.141 329.922 199.328 322.984 199.328C318.234 199.328 313.469 200.281 308.688 202.188L304.938 189.344C311.531 186.656 318.547 185.312 325.984 185.312C334.953 185.312 341.547 187.422 345.766 191.641C349.484 195.266 351.344 200.766 351.344 208.141V238H333.297V232.609C329.328 236.984 324.234 239.172 318.016 239.172C312.891 239.172 308.688 237.75 305.406 234.906C302.156 232.031 300.531 228.031 300.531 222.906ZM318.109 222.062C318.109 223.812 318.703 225.203 319.891 226.234C321.078 227.234 322.625 227.734 324.531 227.734C327.219 227.734 329.391 226.953 331.047 225.391C332.734 223.828 333.578 221.766 333.578 219.203V216.766C331.453 215.891 329.078 215.453 326.453 215.453C323.828 215.453 321.781 216.047 320.312 217.234C318.844 218.422 318.109 220.031 318.109 222.062Z" fill="#65C4A0"/>
<mask id="mask0_255_9" style="mask-type:alpha" maskUnits="userSpaceOnUse" x="129" y="0" width="418" height="418">
<circle cx="338" cy="209" r="209" fill="black"/>
</mask>
<g mask="url(#mask0_255_9)">
<path d="M1.375 228.016L11.0312 215.641C16.3438 220.953 22.6562 223.609 29.9688 223.609C33.3125 223.609 35.8594 223 37.6094 221.781C39.3594 220.562 40.2344 218.953 40.2344 216.953C40.2344 213.016 36.6562 211.047 29.5 211.047H22.4688V197.219H29.2656C32.4844 197.219 34.875 196.672 36.4375 195.578C38 194.453 38.7812 192.953 38.7812 191.078C38.7812 189.328 38.0156 187.922 36.4844 186.859C34.9531 185.766 32.9062 185.219 30.3438 185.219C27.4375 185.219 24.3438 185.844 21.0625 187.094C17.8125 188.344 15.1406 189.922 13.0469 191.828L3.85938 180.859C11.5781 173.266 20.9531 169.469 31.9844 169.469C39.3906 169.469 45.4219 171.172 50.0781 174.578C54.7656 177.984 57.1094 182.328 57.1094 187.609C57.1094 194.641 53.75 199.719 47.0312 202.844C50.6562 204.062 53.5312 205.969 55.6562 208.562C57.7812 211.125 58.8438 214.406 58.8438 218.406C58.8438 224.5 56.4219 229.5 51.5781 233.406C46.7656 237.312 40.2969 239.266 32.1719 239.266C27.2656 239.266 22.8594 238.766 18.9531 237.766C15.0469 236.734 11.8281 235.469 9.29688 233.969C6.79688 232.438 4.15625 230.453 1.375 228.016ZM64 222.906C64 217.656 65.8281 213.625 69.4844 210.812C73.1406 208 78.0938 206.594 84.3438 206.594C89 206.594 93.1719 207.266 96.8594 208.609V207.766C96.8594 202.141 93.3906 199.328 86.4531 199.328C81.7031 199.328 76.9375 200.281 72.1562 202.188L68.4062 189.344C75 186.656 82.0156 185.312 89.4531 185.312C98.4219 185.312 105.016 187.422 109.234 191.641C112.953 195.266 114.812 200.766 114.812 208.141V238H96.7656V232.609C92.7969 236.984 87.7031 239.172 81.4844 239.172C76.3594 239.172 72.1562 237.75 68.875 234.906C65.625 232.031 64 228.031 64 222.906ZM81.5781 222.062C81.5781 223.812 82.1719 225.203 83.3594 226.234C84.5469 227.234 86.0938 227.734 88 227.734C90.6875 227.734 92.8594 226.953 94.5156 225.391C96.2031 223.828 97.0469 221.766 97.0469 219.203V216.766C94.9219 215.891 92.5469 215.453 89.9219 215.453C87.2969 215.453 85.25 216.047 83.7812 217.234C82.3125 218.422 81.5781 220.031 81.5781 222.062ZM120.109 248.547V223.328H124.938C126.531 218.703 127.688 213.875 128.406 208.844C129.156 203.781 129.531 197.016 129.531 188.547V186.062H175.797V223.328H181.844L180.109 248.547H164.594V238H137.406L136.469 248.547H120.109ZM143.547 223.328H157.469V200.547H146.922V201.438C146.766 209.094 145.641 216.391 143.547 223.328ZM184.188 222.906C184.188 217.656 186.016 213.625 189.672 210.812C193.328 208 198.281 206.594 204.531 206.594C209.188 206.594 213.359 207.266 217.047 208.609V207.766C217.047 202.141 213.578 199.328 206.641 199.328C201.891 199.328 197.125 200.281 192.344 202.188L188.594 189.344C195.188 186.656 202.203 185.312 209.641 185.312C218.609 185.312 225.203 187.422 229.422 191.641C233.141 195.266 235 200.766 235 208.141V238H216.953V232.609C212.984 236.984 207.891 239.172 201.672 239.172C196.547 239.172 192.344 237.75 189.062 234.906C185.812 232.031 184.188 228.031 184.188 222.906ZM201.766 222.062C201.766 223.812 202.359 225.203 203.547 226.234C204.734 227.234 206.281 227.734 208.188 227.734C210.875 227.734 213.047 226.953 214.703 225.391C216.391 223.828 217.234 221.766 217.234 219.203V216.766C215.109 215.891 212.734 215.453 210.109 215.453C207.484 215.453 205.438 216.047 203.969 217.234C202.5 218.422 201.766 220.031 201.766 222.062ZM243.766 206.219V186.062H262.094V200.734C262.094 203.422 262.516 205.422 263.359 206.734C264.203 208.047 265.609 208.703 267.578 208.703C270.828 208.703 273.328 208.031 275.078 206.688V186.062H293.312V238H275.078V221.312C273.578 222 271.547 222.562 268.984 223C266.453 223.406 264.188 223.609 262.188 223.609C256.75 223.609 252.312 222.078 248.875 219.016C245.469 215.922 243.766 211.656 243.766 206.219ZM300.531 222.906C300.531 217.656 302.359 213.625 306.016 210.812C309.672 208 314.625 206.594 320.875 206.594C325.531 206.594 329.703 207.266 333.391 208.609V207.766C333.391 202.141 329.922 199.328 322.984 199.328C318.234 199.328 313.469 200.281 308.688 202.188L304.938 189.344C311.531 186.656 318.547 185.312 325.984 185.312C334.953 185.312 341.547 187.422 345.766 191.641C349.484 195.266 351.344 200.766 351.344 208.141V238H333.297V232.609C329.328 236.984 324.234 239.172 318.016 239.172C312.891 239.172 308.688 237.75 305.406 234.906C302.156 232.031 300.531 228.031 300.531 222.906ZM318.109 222.062C318.109 223.812 318.703 225.203 319.891 226.234C321.078 227.234 322.625 227.734 324.531 227.734C327.219 227.734 329.391 226.953 331.047 225.391C332.734 223.828 333.578 221.766 333.578 219.203V216.766C331.453 215.891 329.078 215.453 326.453 215.453C323.828 215.453 321.781 216.047 320.312 217.234C318.844 218.422 318.109 220.031 318.109 222.062Z" fill="black"/>
</g>
<defs>
<linearGradient id="paint0_linear_255_9" x1="547" y1="0" x2="129" y2="418" gradientUnits="userSpaceOnUse">
<stop stop-color="#148393"/>
<stop offset="1" stop-color="#79D5A3"/>
</linearGradient>
</defs>
</svg>
